:SAMPLES-PER-SECOND 30
:FULLY-SPECIFIED
:DEGREES
140
root  -4.84561 40.5848 -0.0547993 171.991 -64.9288 -171.874
RightUpLeg  1.9563 1.96083 2.0332
RightLeg  3.86806 0.0902456 -0.524777
RightFoot  -3.76673 -0.19297 2.29392
RightToes  -3.11842e-008 1.75238e-005 3.56266e-009
Spine  -0.641546 -12.7264 -21.161
Spine1  5.44701 -16.1764 16.3139
HEad  -8.74932 29.6684 -12.6434
LeftShoulder1  4.30875 -12.0095 -21.4112
LeftArm  56.4416 -56.3172 -114.941
LeftForeArm  81.5601 -64.136 -15.3337
LeftHand  -3.23901 -6.90138 30.2451
RightShoulder  4.53305 9.58534 28.6687
RightArm  -63.8203 45.9864 28.8817
RightForeArm  141.605 60.0263 160.237
RightHand  -2.10541 11.8837 -14.4531
LeftUpLeg  6.92146 5.96246 5.93701
LeftLeg  5.99993 32.1305 1.81186
LeftFoot  -6.81072 0.278559 -6.00615
LeftToes  4.7713e-008 1.46693e-008 1.32589e-009
141
root  -4.72237 40.6004 -0.0887127 171.939 -66.9934 -171.636
RightUpLeg  1.81766 1.85497 1.99985
RightLeg  3.75966 -1.85107 -0.538775
RightFoot  -3.71463 -0.183511 2.14389
RightToes  -3.11842e-008 1.75238e-005 3.56266e-009
Spine  -0.449386 -12.1517 -21.5882
Spine1  5.82696 -15.7749 16.7532
HEad  -8.46524 29.3409 -13.1901
LeftShoulder1  4.34713 -11.8046 -22.0725
LeftArm  56.2183 -55.8429 -114.204
LeftForeArm  81.6564 -63.9714 -15.1989
LeftHand  -2.90263 -5.73214 29.9976
RightShoulder  4.56593 9.73792 28.5105
RightArm  -64.5556 45.8539 31.3592
RightForeArm  141.664 59.1501 160.875
RightHand  -2.342 11.3739 -16.4612
LeftUpLeg  6.02998 5.81268 5.99439
LeftLeg  6.25473 30.2411 1.84789
LeftFoot  -6.59921 0.277318 -5.74112
LeftToes  4.7713e-008 1.46693e-008 1.32589e-009
142
root  -4.50473 40.6301 -0.10397 172.285 -69.95 -171.607
RightUpLeg  1.33217 1.55702 1.73679
RightLeg  3.70623 -4.51849 -0.549728
RightFoot  -3.56551 -0.181274 2.11
RightToes  -3.11842e-008 1.75238e-005 3.56266e-009
Spine  -0.325002 -11.1926 -21.7406
Spine1  6.6623 -14.9052 16.6263
HEad  -7.96638 28.7106 -12.9715
LeftShoulder1  4.33437 -11.6669 -22.2455
LeftArm  56.0504 -55.7404 -113.726
LeftForeArm  82.554 -63.1718 -14.5449
LeftHand  -3.27654 -7.49363 29.2345
RightShoulder  4.6271 9.77258 28.8917
RightArm  -66.0038 45.9472 33.0795
RightForeArm  141.073 58.4332 161.322
RightHand  -1.94248 11.0138 -14.0526
LeftUpLeg  4.64395 5.39093 5.78571
LeftLeg  6.31553 27.8381 1.77711
LeftFoot  -6.16637 0.269587 -5.14798
LeftToes  4.7713e-008 1.46693e-008 1.32589e-009
143
root  -4.20219 40.6691 -0.122373 172.484 -74.1687 -171.244
RightUpLeg  0.65219 0.960674 1.31185
RightLeg  3.58383 -8.06202 -0.375084
RightFoot  -3.33349 -0.167095 1.89536
RightToes  -3.11842e-008 1.75238e-005 3.56266e-009
Spine  0.203261 -10.2757 -21.6698
Spine1  7.93212 -14.1272 16.0604
HEad  -7.82401 27.0812 -12.4362
LeftShoulder1  3.99401 -10.9302 -21.3082
LeftArm  56.3647 -55.8517 -114.396
LeftForeArm  81.3869 -61.4451 -13.4265
LeftHand  -3.06034 -6.38763 29.8353
RightShoulder  4.7789 9.82027 29.9278
RightArm  -66.3761 46.79 35.1249
RightForeArm  140.637 58.1229 161.496
RightHand  -1.87291 10.4646 -14.0018
LeftUpLeg  2.71288 4.77513 5.49858
LeftLeg  6.26934 24.4421 1.57667
LeftFoot  -5.51571 0.258859 -4.4347
LeftToes  4.7713e-008 1.46693e-008 1.32589e-009
144
root  -3.807 40.717 -0.171565 169.108 -79.5284 -167.362
RightUpLeg  0.159938 0.390478 1.02829
RightLeg  3.18902 -12.8009 -0.184119
RightFoot  -2.95345 -0.149937 1.63953
RightToes  -3.11842e-008 1.75238e-005 3.56266e-009
Spine  2.02023 -8.75262 -21.1616
Spine1  7.61267 -12.8557 16.1692
HEad  -6.88864 24.0837 -11.5599
LeftShoulder1  4.13674 -11.1981 -21.801
LeftArm  55.4952 -55.6899 -113.568
LeftForeArm  79.8565 -58.7351 -11.8876
LeftHand  -3.0185 -6.19038 29.9274
RightShoulder  4.90322 10.1452 29.9854
RightArm  -67.3294 46.5038 36.4795
RightForeArm  138.964 58.5806 161.051
RightHand  -2.04274 10.2366 -15.4016
LeftUpLeg  0.595437 4.0524 5.29937
LeftLeg  6.03358 19.9461 1.24414
LeftFoot  -4.53131 0.247911 -3.71849
LeftToes  4.7713e-008 1.46693e-008 1.32589e-009
145
root  -3.32607 40.7611 -0.228009 -175.821 -85.5469 178.132
RightUpLeg  -0.576907 -0.451069 0.572876
RightLeg  2.97988 -17.7109 0.0992431
RightFoot  -2.53482 -0.13727 1.45884
RightToes  -3.11842e-008 1.75238e-005 3.56266e-009
Spine  3.81738 -7.02841 -20.0022
Spine1  8.12774 -11.4743 16.1644
HEad  -7.27315 19.9131 -11.2568
LeftShoulder1  4.22293 -11.3141 -22.1822
LeftArm  55.0524 -55.9886 -113.512
LeftForeArm  79.3194 -55.1968 -10.159
LeftHand  -3.04579 -6.44515 29.5753
RightShoulder  4.93101 10.3478 29.6508
RightArm  -66.8769 47.0857 38.6867
RightForeArm  135.106 59.6767 159.949
RightHand  -1.60389 8.96236 -13.2998
LeftUpLeg  -1.63009 3.12755 4.89521
LeftLeg  5.43364 15.2923 0.788351
LeftFoot  -3.17483 0.222064 -2.84147
LeftToes  4.7713e-008 1.46693e-008 1.32589e-009
146
root  -2.77287 40.7797 -0.320239 55.929 -87.4031 -52.9702
RightUpLeg  -1.74183 -1.56089 -0.0381944
RightLeg  3.45481 -23.0145 0.348116
RightFoot  -2.33509 -0.130731 1.3792
RightToes  -3.11842e-008 1.75238e-005 3.56266e-009
Spine  6.38852 -5.27594 -17.2421
Spine1  7.91727 -9.747 15.1142
HEad  -7.96317 14.2389 -10.6727
LeftShoulder1  4.37123 -11.7657 -22.3178
LeftArm  54.3646 -56.0727 -113.067
LeftForeArm  77.4151 -50.8021 -8.43342
LeftHand  -2.94158 -5.67674 30.4654
RightShoulder  5.09326 10.7457 29.7943
RightArm  -66.5465 47.3743 40.2305
RightForeArm  133.604 61.9021 158.038
RightHand  -1.74592 10.1608 -13.3386
LeftUpLeg  -4.17568 1.90494 4.2585
LeftLeg  4.88534 10.1577 0.536198
LeftFoot  -1.58111 0.204879 -2.28973
LeftToes  4.7713e-008 1.46693e-008 1.32589e-009
147
root  -2.2244 40.7921 -0.461122 1.748 -81.7906 2.1734
RightUpLeg  -3.24551 -2.33318 -0.532539
RightLeg  3.92891 -28.2267 0.25654
RightFoot  -2.0384 -0.125847 1.33165
RightToes  -3.11842e-008 1.75238e-005 3.56266e-009
Spine  7.60381 -3.79698 -13.218
Spine1  9.81583 -7.97678 12.9243
HEad  -9.58435 7.61278 -9.34346
LeftShoulder1  4.32072 -11.6857 -22.125
LeftArm  54.616 -56.6269 -113.91
LeftForeArm  75.4223 -45.9679 -6.88169
LeftHand  -2.65059 -5.06968 29.142
RightShoulder  5.32511 11.3052 30.0116
RightArm  -64.8529 48.6704 42.6547
RightForeArm  126.851 65.3257 154.083
RightHand  -1.74976 9.07877 -14.3418
LeftUpLeg  -6.9147 0.71796 3.61715
LeftLeg  4.32143 5.38004 0.238277
LeftFoot  0.398677 0.205812 -2.02012
LeftToes  4.7713e-008 1.46693e-008 1.32589e-009
148
root  -1.69189 40.7786 -0.622669 3.30455 -76.5595 1.95747
RightUpLeg  -5.22008 -3.29002 -1.15676
RightLeg  4.54435 -32.296 0.276453
RightFoot  -1.86222 -0.125284 1.35803
RightToes  -3.11842e-008 1.75238e-005 3.56266e-009
Spine  8.69591 -2.35734 -7.88622
Spine1  11.1621 -5.6966 9.91035
HEad  -10.9781 0.538314 -7.07774
LeftShoulder1  4.30673 -11.7286 -21.9414
LeftArm  52.7651 -57.0211 -113.804
LeftForeArm  73.864 -40.2287 -5.3164
LeftHand  -2.35425 -4.25586 28.1005
RightShoulder  5.5456 11.776 30.34
RightArm  -61.5859 49.4787 45.6523
RightForeArm  113.462 70.709 144.38
RightHand  -1.82969 7.78555 -16.3387
LeftUpLeg  -9.45311 -0.583848 2.91382
LeftLeg  2.98773 1.8024 0.0428918
LeftFoot  2.49444 0.239621 -2.10167
LeftToes  4.7713e-008 1.46693e-008 1.32589e-009
149
root  -1.19707 40.7521 -0.838713 3.52769 -73.0733 2.97021
RightUpLeg  -7.07667 -3.88241 -1.52362
RightLeg  4.84058 -35.0792 0.344304
RightFoot  -1.65777 -0.100905 1.06174
RightToes  -3.11842e-008 1.75238e-005 3.56266e-009
Spine  10.2549 -0.97037 -2.27399
Spine1  11.6944 -3.0567 6.32239
HEad  -12.3519 -5.41273 -4.25986
LeftShoulder1  4.24467 -11.6853 -21.5934
LeftArm  46.7089 -57.0985 -111.872
LeftForeArm  72.5151 -33.5823 -3.75393
LeftHand  -1.74079 -2.46709 25.4783
RightShoulder  5.86226 12.3964 30.929
RightArm  -56.7755 49.7627 48.7307
RightForeArm  76.8898 77.5466 109.846
RightHand  -1.70964 6.91854 -16.3337
LeftUpLeg  -11.2089 -1.25374 2.59516
LeftLeg  1.03146 -0.636903 -0.320283
LeftFoot  4.59396 0.295415 -2.30344
LeftToes  4.7713e-008 1.46693e-008 1.32589e-009
150
root  -0.748147 40.7539 -1.09534 3.6436 -71.6 3.78053
RightUpLeg  -8.46644 -3.97203 -1.67518
RightLeg  4.27545 -36.3987 0.747282
RightFoot  -1.08165 -0.0380509 0.341073
RightToes  -3.11842e-008 1.75238e-005 3.56266e-009
Spine  11.4882 0.775907 1.34093
Spine1  13.161 -0.521163 4.55098
HEad  -13.9171 -10.193 -2.02
LeftShoulder1  4.25271 -11.5215 -21.9773
LeftArm  35.5227 -57.6052 -108.364
LeftForeArm  74.3889 -26.6179 -2.38794
LeftHand  -1.29837 -1.69833 21.3865
RightShoulder  5.81057 12.6795 29.9394
RightArm  -50.322 50.8703 50.9887
RightForeArm  5.61272 73.0896 44.5683
RightHand  -1.39519 5.3768 -15.2555
LeftUpLeg  -12.0569 -1.29994 2.60267
LeftLeg  -1.37123 -1.76648 -0.733091
LeftFoot  6.84009 0.406723 -2.80411
LeftToes  4.7713e-008 1.46693e-008 1.32589e-009
151
root  -0.388717 40.7355 -1.32768 4.81131 -71.3185 3.50565
RightUpLeg  -9.99246 -3.67381 -1.4297
RightLeg  4.02471 -36.8002 0.981039
RightFoot  -0.612045 0.0112665 -0.164898
RightToes  -3.11842e-008 1.75238e-005 3.56266e-009
Spine  13.0076 2.14453 4.55628
Spine1  13.7654 1.78438 2.71682
HEad  -14.7706 -13.3763 -0.528037
LeftShoulder1  4.12648 -11.0653 -21.9951
LeftArm  19.4363 -57.4291 -102.434
LeftForeArm  79.6936 -20.7421 -1.51869
LeftHand  -1.24415 -1.42454 21.1795
RightShoulder  5.71311 12.8814 28.8782
RightArm  -40.7923 52.674 51.6468
RightForeArm  -26.8507 57.6293 19.5401
RightHand  -1.28763 5.18451 -14.3687
LeftUpLeg  -12.9349 -1.24935 2.94256
LeftLeg  -3.08325 -1.82914 -0.819268
LeftFoot  8.36267 0.496894 -3.15635
LeftToes  4.7713e-008 1.46693e-008 1.32589e-009
